<?xml version="1.0" encoding="UTF-8" standalone="no"?>
<!-- Created with Inkscape (http://www.inkscape.org/) -->

<svg
   version="1.1"
   id="svg1"
   width="765.12927"
   height="499.21695"
   viewBox="0 0 765.12927 499.21695"
   sodipodi:docname="hclogo3.png"
   xmlns:inkscape="http://www.inkscape.org/namespaces/inkscape"
   xmlns:sodipodi="http://sodipodi.sourceforge.net/DTD/sodipodi-0.dtd"
   xmlns="http://www.w3.org/2000/svg"
   xmlns:svg="http://www.w3.org/2000/svg">
  <defs
     id="defs1" />
  <sodipodi:namedview
     id="namedview1"
     pagecolor="#505050"
     bordercolor="#eeeeee"
     borderopacity="1"
     inkscape:showpageshadow="0"
     inkscape:pageopacity="0"
     inkscape:pagecheckerboard="0"
     inkscape:deskcolor="#505050"
     showgrid="false" />
  <g
     inkscape:groupmode="layer"
     inkscape:label="Image"
     id="g1"
     transform="translate(-152.77908,-247.58168)">
    <g
       id="g20">
      <g
         id="g19"
         inkscape:label="shadow"
         style="fill:#383e42;fill-opacity:1;stroke:#393842;stroke-opacity:1">
        <g
           id="g17"
           style="fill:#383e42;fill-opacity:1;stroke:#393842;stroke-width:1.00462;stroke-opacity:1"
           transform="matrix(0.99545175,0,0,0.99543185,42.553551,17.135159)">
          <rect
             style="font-variation-settings:'wdth' 87, 'wght' 700;fill:#383e42;fill-opacity:1;fill-rule:evenodd;stroke:#393842;stroke-width:5.56238;stroke-linejoin:round;stroke-dasharray:none;stroke-opacity:1"
             id="rect15"
             width="119.49582"
             height="475.5"
             x="121.72397"
             y="251.62857"
             inkscape:label="h1" />
          <rect
             style="font-variation-settings:'wdth' 87, 'wght' 700;fill:#383e42;fill-opacity:1;fill-rule:evenodd;stroke:#393842;stroke-width:5.56238;stroke-linejoin:round;stroke-dasharray:none;stroke-opacity:1"
             id="rect16"
             width="103.78022"
             height="96.242882"
             x="241.21979"
             y="441.25711"
             inkscape:label="h2" />
          <rect
             style="font-variation-settings:'wdth' 87, 'wght' 700;fill:#383e42;fill-opacity:1;fill-rule:evenodd;stroke:#393842;stroke-width:5.56238;stroke-linejoin:round;stroke-dasharray:none;stroke-opacity:1"
             id="rect17"
             width="117"
             height="475.5"
             x="345"
             y="251.62856"
             inkscape:label="h3" />
        </g>
        <g
           id="g18"
           transform="matrix(0.99545175,0,0,0.99543185,26.365001,7.5576501)"
           style="fill:#383e42;fill-opacity:1;stroke:#393842;stroke-width:1.00462;stroke-opacity:1">
          <path
             id="path17"
             style="fill:#383e42;fill-opacity:1;stroke:#393842;stroke-width:5.56238;stroke-dasharray:none;stroke-opacity:1"
             inkscape:label="c2"
             d="M 635.49023,441.20117 535.2207,389.34766 c -3.02226,6.68386 -7.46348,18.13242 -9.86914,25.4414 -2.40566,7.30901 -5.69542,19.90904 -7.31054,28 -1.61515,8.09096 -3.40949,19.08105 -3.98829,24.42188 -0.5788,5.34079 -1.05273,14.90332 -1.05273,21.25 V 498 v 2 9.53906 c 0,6.34668 0.47393,15.90921 1.05273,21.25 0.5788,5.34083 2.37314,16.33092 3.98829,24.42188 1.61512,8.09096 4.90488,20.69099 7.31054,28 2.40566,7.30898 6.84688,18.75754 9.86914,25.4414 3.02228,6.6839 8.37113,16.95519 11.88672,22.82422 3.51561,5.86906 9.98515,15.47562 14.37696,21.34766 4.39179,5.87202 12.94182,15.78213 19,22.02344 6.05816,6.24127 14.61562,14.39728 19.01562,18.12304 4.4,3.7258 12.78963,9.92169 18.64453,13.76953 5.85492,3.84786 15.44922,9.33703 21.32031,12.19727 5.87112,2.86024 14.92026,6.73688 20.10938,8.61523 5.18908,1.87838 13.81985,4.50711 19.17969,5.8418 5.35982,1.33469 14.24612,3.13367 19.74609,3.99805 5.49997,0.86437 11.575,1.73286 13.5,1.92969 1.925,0.19683 9.02992,0.42957 15.78906,0.51757 6.75918,0.088 16.65921,-0.31666 22,-0.89843 5.34083,-0.58177 14.21097,-1.95732 19.71094,-3.05664 5.49997,-1.09935 14.55757,-3.51658 20.12891,-5.37305 5.57131,-1.85648 15.47134,-6.05871 22,-9.33789 6.52863,-3.27921 15.92109,-8.63533 20.87109,-11.90235 4.95,-3.26698 12.6,-8.79388 17,-12.2832 4.4,-3.48931 12.75268,-11.10168 18.5625,-16.91601 5.80982,-5.81436 13.81307,-14.80016 17.78516,-19.9668 3.97206,-5.16667 7.09445,-9.74939 6.9375,-10.18359 -0.15694,-0.43421 -10.01836,-11.28142 -21.91407,-24.10547 -11.89568,-12.82408 -27.19574,-29.08342 -34,-36.13282 L 824.5,576.86523 l -5,6.28321 c -2.75,3.45496 -9.27503,10.75959 -14.5,16.23242 -5.22497,5.47279 -13.06119,12.60101 -17.41406,15.8418 -4.3529,3.24077 -12.00293,7.86706 -17,10.28125 -4.9971,2.41415 -12.68594,5.35139 -17.08594,6.52539 -4.67801,1.24817 -12.66831,2.36548 -19.24023,2.6914 -6.86269,0.34034 -14.19106,0.0811 -18.82227,-0.66601 -4.17144,-0.67293 -10.58954,-2.24607 -14.26172,-3.4961 -3.67218,-1.25 -9.37578,-3.63943 -12.67578,-5.30859 -3.3,-1.66916 -8.88459,-5.15981 -12.41016,-7.75781 -3.52554,-2.59803 -9.07303,-7.48365 -12.32812,-10.85742 -3.25509,-3.3738 -8.77816,-10.4098 -12.27344,-15.63477 -3.49528,-5.22497 -7.9343,-13.19106 -9.86328,-17.70117 -1.92899,-4.51014 -4.68951,-11.93517 -6.13477,-16.5 -1.44523,-4.56486 -3.49269,-12.49357 -4.55078,-17.6211 -1.05809,-5.12751 -2.3768,-15.25254 -2.92968,-22.5 -0.55288,-7.24744 -1.00682,-14.41523 -1.00782,-15.92773 L 627,499 l 0.002,-1.75 c 0.001,-1.5125 0.45494,-8.68029 1.00782,-15.92773 0.55288,-7.24746 1.87159,-17.37249 2.92968,-22.5 1.05809,-5.12753 3.10555,-13.05624 4.55078,-17.6211 z" />
          <path
             id="path18"
             style="fill:#383e42;fill-opacity:1;stroke:#393842;stroke-width:5.56238;stroke-dasharray:none;stroke-opacity:1"
             inkscape:label="c2"
             d="m 727.78906,258.16016 c -6.75914,0.088 -13.86406,0.32074 -15.78906,0.51757 -1.925,0.19683 -8.00003,1.06532 -13.5,1.92969 -5.49997,0.86438 -14.38627,2.66336 -19.74609,3.99805 -5.35984,1.33469 -13.99061,3.96342 -19.17969,5.8418 -5.18912,1.87835 -14.23826,5.75499 -20.10938,8.61523 -5.87109,2.86024 -15.46539,8.34941 -21.32031,12.19727 -5.8549,3.84784 -14.24453,10.04373 -18.64453,13.76953 -4.4,3.72576 -12.95746,11.88177 -19.01562,18.12304 -6.05818,6.24131 -14.60821,16.15142 -19,22.02344 -4.39181,5.87204 -10.86135,15.4786 -14.37696,21.34766 -3.51559,5.86903 -8.86444,16.14032 -11.88672,22.82422 l 100.26953,51.85351 c 1.44526,-4.56483 4.20578,-11.98986 6.13477,-16.5 1.92898,-4.51011 6.368,-12.4762 9.86328,-17.70117 3.49528,-5.22497 9.01835,-12.26097 12.27344,-15.63477 3.25509,-3.37377 8.80258,-8.25939 12.32812,-10.85742 3.52557,-2.598 9.11016,-6.08865 12.41016,-7.75781 3.3,-1.66916 9.0036,-4.05859 12.67578,-5.30859 3.67218,-1.25003 10.09028,-2.82317 14.26172,-3.4961 4.63121,-0.74711 11.95958,-1.00635 18.82227,-0.66601 6.57192,0.32592 14.56222,1.44323 19.24023,2.6914 4.4,1.174 12.08884,4.11124 17.08594,6.52539 4.99707,2.41419 12.6471,7.04048 17,10.28125 4.35287,3.24079 12.18909,10.36901 17.41406,15.8418 5.22497,5.47283 11.75,12.77746 14.5,16.23242 l 5,6.28321 12.37109,-12.81836 c 6.80426,-7.0494 22.10432,-23.30874 34,-36.13282 11.89571,-12.82405 21.75713,-23.67126 21.91407,-24.10547 0.15695,-0.4342 -2.96544,-5.01692 -6.9375,-10.18359 -3.97209,-5.16664 -11.97534,-14.15244 -17.78516,-19.9668 -5.80982,-5.81433 -14.1625,-13.4267 -18.5625,-16.91601 -4.4,-3.48932 -12.05,-9.01622 -17,-12.2832 -4.95,-3.26702 -14.34246,-8.62314 -20.87109,-11.90235 -6.52866,-3.27918 -16.42869,-7.48141 -22,-9.33789 -5.57134,-1.85647 -14.62894,-4.2737 -20.12891,-5.37305 -5.49997,-1.09932 -14.37011,-2.47487 -19.71094,-3.05664 -5.34079,-0.58177 -15.24082,-0.98643 -22,-0.89843 z" />
        </g>
      </g>
    </g>
    <g
       id="g14"
       style="stroke:#ceb5a0;stroke-width:1.88976;stroke-dasharray:none;stroke-opacity:1"
       transform="translate(32,3.2652868)">
      <rect
         style="font-variation-settings:'wdth' 87, 'wght' 700;fill:#4278ad;fill-opacity:1;fill-rule:evenodd;stroke:#ceb5a0;stroke-width:1.88976;stroke-linejoin:round;stroke-dasharray:none;stroke-opacity:1"
         id="rect11"
         width="119.49582"
         height="475.5"
         x="121.72397"
         y="251.62857"
         inkscape:label="h1" />
      <rect
         style="font-variation-settings:'wdth' 87, 'wght' 700;fill:#6b9294;fill-opacity:1;fill-rule:evenodd;stroke:#ceb5a0;stroke-width:1.88976;stroke-linejoin:round;stroke-dasharray:none;stroke-opacity:1"
         id="rect12"
         width="103.78022"
         height="96.242882"
         x="241.21979"
         y="441.25711"
         inkscape:label="h2" />
      <rect
         style="font-variation-settings:'wdth' 87, 'wght' 700;fill:#7f94ad;fill-opacity:1;fill-rule:evenodd;stroke:#ceb5a0;stroke-width:1.88976;stroke-linejoin:round;stroke-dasharray:none;stroke-opacity:1"
         id="rect13"
         width="117"
         height="475.5"
         x="345"
         y="251.62856"
         inkscape:label="h3" />
    </g>
    <g
       id="g15"
       transform="translate(15.883667,-9.6214447)"
       style="stroke:#ceb5a0;stroke-width:1.88976;stroke-dasharray:none;stroke-opacity:1">
      <path
         id="path13-6"
         style="fill:#d08654;fill-opacity:1;stroke:#ceb5a0;stroke-width:1.88976;stroke-dasharray:none;stroke-opacity:1"
         inkscape:label="c2"
         d="M 635.49023,441.20117 535.2207,389.34766 c -3.02226,6.68386 -7.46348,18.13242 -9.86914,25.4414 -2.40566,7.30901 -5.69542,19.90904 -7.31054,28 -1.61515,8.09096 -3.40949,19.08105 -3.98829,24.42188 -0.5788,5.34079 -1.05273,14.90332 -1.05273,21.25 V 498 v 2 9.53906 c 0,6.34668 0.47393,15.90921 1.05273,21.25 0.5788,5.34083 2.37314,16.33092 3.98829,24.42188 1.61512,8.09096 4.90488,20.69099 7.31054,28 2.40566,7.30898 6.84688,18.75754 9.86914,25.4414 3.02228,6.6839 8.37113,16.95519 11.88672,22.82422 3.51561,5.86906 9.98515,15.47562 14.37696,21.34766 4.39179,5.87202 12.94182,15.78213 19,22.02344 6.05816,6.24127 14.61562,14.39728 19.01562,18.12304 4.4,3.7258 12.78963,9.92169 18.64453,13.76953 5.85492,3.84786 15.44922,9.33703 21.32031,12.19727 5.87112,2.86024 14.92026,6.73688 20.10938,8.61523 5.18908,1.87838 13.81985,4.50711 19.17969,5.8418 5.35982,1.33469 14.24612,3.13367 19.74609,3.99805 5.49997,0.86437 11.575,1.73286 13.5,1.92969 1.925,0.19683 9.02992,0.42957 15.78906,0.51757 6.75918,0.088 16.65921,-0.31666 22,-0.89843 5.34083,-0.58177 14.21097,-1.95732 19.71094,-3.05664 5.49997,-1.09935 14.55757,-3.51658 20.12891,-5.37305 5.57131,-1.85648 15.47134,-6.05871 22,-9.33789 6.52863,-3.27921 15.92109,-8.63533 20.87109,-11.90235 4.95,-3.26698 12.6,-8.79388 17,-12.2832 4.4,-3.48931 12.75268,-11.10168 18.5625,-16.91601 5.80982,-5.81436 13.81307,-14.80016 17.78516,-19.9668 3.97206,-5.16667 7.09445,-9.74939 6.9375,-10.18359 -0.15694,-0.43421 -10.01836,-11.28142 -21.91407,-24.10547 -11.89568,-12.82408 -27.19574,-29.08342 -34,-36.13282 L 824.5,576.86523 l -5,6.28321 c -2.75,3.45496 -9.27503,10.75959 -14.5,16.23242 -5.22497,5.47279 -13.06119,12.60101 -17.41406,15.8418 -4.3529,3.24077 -12.00293,7.86706 -17,10.28125 -4.9971,2.41415 -12.68594,5.35139 -17.08594,6.52539 -4.67801,1.24817 -12.66831,2.36548 -19.24023,2.6914 -6.86269,0.34034 -14.19106,0.0811 -18.82227,-0.66601 -4.17144,-0.67293 -10.58954,-2.24607 -14.26172,-3.4961 -3.67218,-1.25 -9.37578,-3.63943 -12.67578,-5.30859 -3.3,-1.66916 -8.88459,-5.15981 -12.41016,-7.75781 -3.52554,-2.59803 -9.07303,-7.48365 -12.32812,-10.85742 -3.25509,-3.3738 -8.77816,-10.4098 -12.27344,-15.63477 -3.49528,-5.22497 -7.9343,-13.19106 -9.86328,-17.70117 -1.92899,-4.51014 -4.68951,-11.93517 -6.13477,-16.5 -1.44523,-4.56486 -3.49269,-12.49357 -4.55078,-17.6211 -1.05809,-5.12751 -2.3768,-15.25254 -2.92968,-22.5 -0.55288,-7.24744 -1.00682,-14.41523 -1.00782,-15.92773 L 627,499 l 0.002,-1.75 c 0.001,-1.5125 0.45494,-8.68029 1.00782,-15.92773 0.55288,-7.24746 1.87159,-17.37249 2.92968,-22.5 1.05809,-5.12753 3.10555,-13.05624 4.55078,-17.6211 z" />
      <path
         id="path13"
         style="fill:#f2ca91;stroke:#ceb5a0;stroke-width:1.88976;stroke-dasharray:none;stroke-opacity:1"
         inkscape:label="c2"
         d="m 727.78906,258.16016 c -6.75914,0.088 -13.86406,0.32074 -15.78906,0.51757 -1.925,0.19683 -8.00003,1.06532 -13.5,1.92969 -5.49997,0.86438 -14.38627,2.66336 -19.74609,3.99805 -5.35984,1.33469 -13.99061,3.96342 -19.17969,5.8418 -5.18912,1.87835 -14.23826,5.75499 -20.10938,8.61523 -5.87109,2.86024 -15.46539,8.34941 -21.32031,12.19727 -5.8549,3.84784 -14.24453,10.04373 -18.64453,13.76953 -4.4,3.72576 -12.95746,11.88177 -19.01562,18.12304 -6.05818,6.24131 -14.60821,16.15142 -19,22.02344 -4.39181,5.87204 -10.86135,15.4786 -14.37696,21.34766 -3.51559,5.86903 -8.86444,16.14032 -11.88672,22.82422 l 100.26953,51.85351 c 1.44526,-4.56483 4.20578,-11.98986 6.13477,-16.5 1.92898,-4.51011 6.368,-12.4762 9.86328,-17.70117 3.49528,-5.22497 9.01835,-12.26097 12.27344,-15.63477 3.25509,-3.37377 8.80258,-8.25939 12.32812,-10.85742 3.52557,-2.598 9.11016,-6.08865 12.41016,-7.75781 3.3,-1.66916 9.0036,-4.05859 12.67578,-5.30859 3.67218,-1.25003 10.09028,-2.82317 14.26172,-3.4961 4.63121,-0.74711 11.95958,-1.00635 18.82227,-0.66601 6.57192,0.32592 14.56222,1.44323 19.24023,2.6914 4.4,1.174 12.08884,4.11124 17.08594,6.52539 4.99707,2.41419 12.6471,7.04048 17,10.28125 4.35287,3.24079 12.18909,10.36901 17.41406,15.8418 5.22497,5.47283 11.75,12.77746 14.5,16.23242 l 5,6.28321 12.37109,-12.81836 c 6.80426,-7.0494 22.10432,-23.30874 34,-36.13282 11.89571,-12.82405 21.75713,-23.67126 21.91407,-24.10547 0.15695,-0.4342 -2.96544,-5.01692 -6.9375,-10.18359 -3.97209,-5.16664 -11.97534,-14.15244 -17.78516,-19.9668 -5.80982,-5.81433 -14.1625,-13.4267 -18.5625,-16.91601 -4.4,-3.48932 -12.05,-9.01622 -17,-12.2832 -4.95,-3.26702 -14.34246,-8.62314 -20.87109,-11.90235 -6.52866,-3.27918 -16.42869,-7.48141 -22,-9.33789 -5.57134,-1.85647 -14.62894,-4.2737 -20.12891,-5.37305 -5.49997,-1.09932 -14.37011,-2.47487 -19.71094,-3.05664 -5.34079,-0.58177 -15.24082,-0.98643 -22,-0.89843 z" />
    </g>
  </g>
</svg>
